<svg width="44" height="43" viewBox="0 0 44 43" fill="none" xmlns="http://www.w3.org/2000/svg">
<path fill-rule="evenodd" clip-rule="evenodd" d="M20.7915 0.101803C19.6751 0.317486 18.6473 1.02284 17.4885 2.36849C16.7941 3.17482 16.0891 3.72892 15.3036 4.08572C14.2281 4.57412 13.9866 4.60285 11.985 4.48139C9.53336 4.33267 8.67332 4.5023 7.45983 5.37454C6.29509 6.2115 5.86923 7.22739 5.64267 9.70871C5.40844 12.2764 5.03538 13.0608 3.40539 14.4128C1.22306 16.2234 0.459058 17.0994 0.170324 18.1225C-0.234459 19.5571 0.0338365 20.532 1.50136 22.959C2.72593 24.984 2.81643 25.2215 2.81579 26.4087C2.81536 27.11 2.64565 28.4265 2.43847 29.3342C2.00963 31.2135 2.15336 32.2057 3.04086 33.4975C3.67475 34.4198 4.2156 34.7405 6.70818 35.671C7.79391 36.0764 8.99506 36.6447 9.37706 36.9339C9.76801 37.2298 10.4873 38.228 11.0222 39.2168C12.2176 41.4269 12.7978 42.1145 13.8801 42.6021C15.1558 43.1771 16.4025 43.0919 18.8928 42.2598C20.1099 41.8532 21.5067 41.5205 21.9967 41.5205C22.4868 41.5205 23.814 41.8532 24.9464 42.2598C27.3691 43.1298 28.8965 43.2255 30.1598 42.586C31.1747 42.0725 31.7289 41.3948 32.9403 39.1864C34.0637 37.139 34.7304 36.6237 37.1653 35.9214C39.3221 35.2994 40.0392 34.9232 40.6948 34.0704C41.6897 32.7763 41.8168 31.7209 41.3053 29.0022C40.7308 25.949 40.8503 25.3617 42.5755 22.7592C43.6674 21.1121 43.8948 20.6091 43.9733 19.6669C44.1518 17.5331 43.4678 16.4179 40.9005 14.6572C38.787 13.2076 38.3496 12.4496 38.0521 9.71927C37.9261 8.56205 37.77 7.42512 37.7055 7.19275C37.4385 6.23136 36.4786 5.17449 35.3945 4.64827C34.3165 4.12501 34.1862 4.11128 31.6425 4.25007C28.4023 4.4271 28.0488 4.30584 25.8878 2.27702C23.7218 0.243762 22.5801 -0.243587 20.7915 0.101803Z" fill="#64A1E6"/>
<g filter="url(#filter0_d_970_1906)">
<path d="M29.8276 14.9082C29.2137 14.3689 28.2734 14.4533 27.7654 15.0934L21.2544 23.2968C20.7307 23.9567 19.7663 24.0559 19.1191 23.5165L16.6114 21.4264C15.9987 20.9157 15.0874 21.0013 14.5805 21.6171V21.6171C14.0782 22.2274 14.1626 23.1287 14.7695 23.6351L19.3406 27.4494C19.9797 27.9827 20.9308 27.8936 21.4597 27.2509L29.9879 16.8898C30.478 16.2942 30.4071 15.4172 29.8276 14.9082V14.9082Z" fill="#FEFEFE"/>
</g>
<defs>
<filter id="filter0_d_970_1906" x="13.2529" y="14.5527" width="18.0605" height="16.2451" filterUnits="userSpaceOnUse" color-interpolation-filters="sRGB">
<feFlood flood-opacity="0" result="BackgroundImageFix"/>
<feColorMatrix in="SourceAlpha" type="matrix" values="0 0 0 0 0 0 0 0 0 0 0 0 0 0 0 0 0 0 127 0" result="hardAlpha"/>
<feOffset dy="2"/>
<feGaussianBlur stdDeviation="0.5"/>
<feComposite in2="hardAlpha" operator="out"/>
<feColorMatrix type="matrix" values="0 0 0 0 0.438461 0 0 0 0 0.418225 0 0 0 0 0.418225 0 0 0 0.25 0"/>
<feBlend mode="normal" in2="BackgroundImageFix" result="effect1_dropShadow_970_1906"/>
<feBlend mode="normal" in="SourceGraphic" in2="effect1_dropShadow_970_1906" result="shape"/>
</filter>
</defs>
</svg>
