<svg width="32" height="32" viewBox="0 0 32 32" fill="none" xmlns="http://www.w3.org/2000/svg">
<path d="M24 21.4935C22.9867 21.4935 22.08 21.8935 21.3867 22.5202L11.88 16.9869C11.9467 16.6802 12 16.3735 12 16.0535C12 15.7335 11.9467 15.4269 11.88 15.1202L21.28 9.64022C22 10.3069 22.9467 10.7202 24 10.7202C26.2133 10.7202 28 8.93355 28 6.72021C28 4.50688 26.2133 2.72021 24 2.72021C21.7867 2.72021 20 4.50688 20 6.72021C20 7.04021 20.0533 7.34688 20.12 7.65355L10.72 13.1335C10 12.4669 9.05333 12.0535 8 12.0535C5.78667 12.0535 4 13.8402 4 16.0535C4 18.2669 5.78667 20.0535 8 20.0535C9.05333 20.0535 10 19.6402 10.72 18.9735L20.2133 24.5202C20.1467 24.8002 20.1067 25.0935 20.1067 25.3869C20.1067 27.5335 21.8533 29.2802 24 29.2802C26.1467 29.2802 27.8933 27.5335 27.8933 25.3869C27.8933 23.2402 26.1467 21.4935 24 21.4935ZM24 5.38688C24.7333 5.38688 25.3333 5.98688 25.3333 6.72021C25.3333 7.45355 24.7333 8.05355 24 8.05355C23.2667 8.05355 22.6667 7.45355 22.6667 6.72021C22.6667 5.98688 23.2667 5.38688 24 5.38688ZM8 17.3869C7.26667 17.3869 6.66667 16.7869 6.66667 16.0535C6.66667 15.3202 7.26667 14.7202 8 14.7202C8.73333 14.7202 9.33333 15.3202 9.33333 16.0535C9.33333 16.7869 8.73333 17.3869 8 17.3869ZM24 26.7469C23.2667 26.7469 22.6667 26.1469 22.6667 25.4135C22.6667 24.6802 23.2667 24.0802 24 24.0802C24.7333 24.0802 25.3333 24.6802 25.3333 25.4135C25.3333 26.1469 24.7333 26.7469 24 26.7469Z" fill="#3F3F3F"/>
</svg>
